<svg xmlns="http://www.w3.org/2000/svg" width="805" height="600"><rect width="805" height="600" x="0" y="0" fill="#FFFFFF" id="backgorund"/><g id="viz"><clipPath id="serieClipPath"><rect x="-55" y="-18" width="805" height="600"/></clipPath><g transform="translate(0,0)"><g transform="translate(55,18)" clip-path="url(#serieClipPath)"><g id="axis"><g transform="translate(0,552)" fill="none" font-size="10" font-family="sans-serif" text-anchor="middle"><path class="domain" stroke="currentColor" d="M0.5,6V0.5H732.5V6"/><g class="tick" opacity="1" transform="translate(0.5,0)"><line stroke="currentColor" y2="6"/><text fill="currentColor" y="9" dy="0.71em">2010</text></g><g class="tick" opacity="1" transform="translate(66.99576903932305,0)"><line stroke="currentColor" y2="6"/><text fill="currentColor" y="9" dy="0.71em">2011</text></g><g class="tick" opacity="1" transform="translate(133.4915380786461,0)"><line stroke="currentColor" y2="6"/><text fill="currentColor" y="9" dy="0.71em">2012</text></g><g class="tick" opacity="1" transform="translate(200.16948730711795,0)"><line stroke="currentColor" y2="6"/><text fill="currentColor" y="9" dy="0.71em">2013</text></g><g class="tick" opacity="1" transform="translate(266.665256346441,0)"><line stroke="currentColor" y2="6"/><text fill="currentColor" y="9" dy="0.71em">2014</text></g><g class="tick" opacity="1" transform="translate(333.1610253857641,0)"><line stroke="currentColor" y2="6"/><text fill="currentColor" y="9" dy="0.71em">2015</text></g><g class="tick" opacity="1" transform="translate(399.65679442508707,0)"><line stroke="currentColor" y2="6"/><text fill="currentColor" y="9" dy="0.71em">2016</text></g><g class="tick" opacity="1" transform="translate(466.334743653559,0)"><line stroke="currentColor" y2="6"/><text fill="currentColor" y="9" dy="0.71em">2017</text></g><g class="tick" opacity="1" transform="translate(532.830512692882,0)"><line stroke="currentColor" y2="6"/><text fill="currentColor" y="9" dy="0.71em">2018</text></g><g class="tick" opacity="1" transform="translate(599.3262817322051,0)"><line stroke="currentColor" y2="6"/><text fill="currentColor" y="9" dy="0.71em">2019</text></g><g class="tick" opacity="1" transform="translate(665.8220507715282,0)"><line stroke="currentColor" y2="6"/><text fill="currentColor" y="9" dy="0.71em">2020</text></g><g class="tick" opacity="1" transform="translate(732.5,0)"><line stroke="currentColor" y2="6"/><text fill="currentColor" y="9" dy="0.71em">2021</text></g><text x="732" dy="-5" text-anchor="end" style="font-family: Arial, sans-serif; font-size: 12px; fill: rgb(123, 123, 123); font-weight: bold;">Year</text></g><g transform="translate(0,0)" fill="none" font-size="10" font-family="sans-serif" text-anchor="end"><path class="domain" stroke="currentColor" d="M0.5,552.5V0.5"/><g class="tick" opacity="1" transform="translate(0,552.5)"><line stroke="currentColor" x2="-6"/><text fill="currentColor" x="-9" dy="0.32em">40</text></g><g class="tick" opacity="1" transform="translate(0,502.3181818181818)"><line stroke="currentColor" x2="-6"/><text fill="currentColor" x="-9" dy="0.32em">45</text></g><g class="tick" opacity="1" transform="translate(0,452.1363636363636)"><line stroke="currentColor" x2="-6"/><text fill="currentColor" x="-9" dy="0.32em">50</text></g><g class="tick" opacity="1" transform="translate(0,401.95454545454544)"><line stroke="currentColor" x2="-6"/><text fill="currentColor" x="-9" dy="0.32em">55</text></g><g class="tick" opacity="1" transform="translate(0,351.77272727272725)"><line stroke="currentColor" x2="-6"/><text fill="currentColor" x="-9" dy="0.32em">60</text></g><g class="tick" opacity="1" transform="translate(0,301.59090909090907)"><line stroke="currentColor" x2="-6"/><text fill="currentColor" x="-9" dy="0.32em">65</text></g><g class="tick" opacity="1" transform="translate(0,251.40909090909093)"><line stroke="currentColor" x2="-6"/><text fill="currentColor" x="-9" dy="0.32em">70</text></g><g class="tick" opacity="1" transform="translate(0,201.22727272727272)"><line stroke="currentColor" x2="-6"/><text fill="currentColor" x="-9" dy="0.32em">75</text></g><g class="tick" opacity="1" transform="translate(0,151.04545454545453)"><line stroke="currentColor" x2="-6"/><text fill="currentColor" x="-9" dy="0.32em">80</text></g><g class="tick" opacity="1" transform="translate(0,100.86363636363633)"><line stroke="currentColor" x2="-6"/><text fill="currentColor" x="-9" dy="0.32em">85</text></g><g class="tick" opacity="1" transform="translate(0,50.6818181818182)"><line stroke="currentColor" x2="-6"/><text fill="currentColor" x="-9" dy="0.32em">90</text></g><g class="tick" opacity="1" transform="translate(0,0.5)"><line stroke="currentColor" x2="-6"/><text fill="currentColor" x="-9" dy="0.32em">95</text></g><text x="4" text-anchor="start" dominant-baseline="hanging" style="font-family: Arial, sans-serif; font-size: 12px; fill: rgb(123, 123, 123); font-weight: bold;">Inbound(單位百萬)</text></g></g><g id="viz"><g><path d="M0,174.63272727272735C33.247884519661525,174.63272727272735,33.247884519661525,145.52727272727276,66.49576903932305,145.52727272727276C99.74365355898458,145.52727272727276,99.74365355898458,130.47272727272724,132.9915380786461,130.47272727272724C166.33051269288202,130.47272727272724,166.33051269288202,114.41454545454552,199.66948730711795,114.41454545454552C232.9173718267795,114.41454545454552,232.9173718267795,113.41090909090909,266.165256346441,113.41090909090909C299.4131408661026,113.41090909090909,299.4131408661026,105.38181818181819,332.6610253857641,105.38181818181819C365.9089099054256,105.38181818181819,365.9089099054256,123.44727272727272,399.15679442508707,123.44727272727272C432.495769039323,123.44727272727272,432.495769039323,81.29454545454543,465.834743653559,81.29454545454543C499.08262817322054,81.29454545454543,499.08262817322054,56.2036363636363,532.330512692882,56.2036363636363C565.5783972125436,56.2036363636363,565.5783972125436,41.149090909090866,598.8262817322051,41.149090909090866C632.0741662518667,41.149090909090866,632.0741662518667,534.9381818181818,665.3220507715282,534.9381818181818C698.6610253857641,534.9381818181818,698.6610253857641,467.69454545454545,732,467.69454545454545" stroke="#1f77b4" fill="none"/><text font-family="sans-serif" font-size="10" class="labels" x="598.8262817322051" y="41.149090909090866" dx="0" dy="-4" text-anchor="middle"/></g></g></g><text y="4" x="4" style="font-family: Arial, sans-serif; font-size: 12px; fill: black; font-weight: bold; dominant-baseline: hanging;"/></g><g id="grid"><rect x="0" y="0" width="805" height="600" fill="none" stroke="#ccc"/></g></g></svg>